<svg width="631" height="563" viewBox="0 0 631 563" fill="none" xmlns="http://www.w3.org/2000/svg">
<mask id="mask0_1201_7935" style="mask-type:alpha" maskUnits="userSpaceOnUse" x="19" y="56" width="542" height="457">
<path d="M348.487 73.1756C338.643 69.8093 328.558 66.7815 318.249 64.1002C260.258 49.0169 216.783 57.6137 185.341 90.3817C158.097 118.775 143.999 160.868 131.56 198.006C123.258 222.795 115.416 246.21 104.846 261.548C69.6594 312.61 47.8604 319.208 34.8363 323.151C27.2945 325.434 22.3125 326.942 19.6544 335.938C17.0498 344.754 40.3096 365.088 92.8544 399.929C115.579 414.998 136.896 415.965 154.024 416.743C162.605 417.133 170.027 417.47 175.94 419.516L176.144 418.923L175.94 419.516C192.222 425.14 195.96 428.755 204.149 436.674C210.978 443.277 221.298 453.257 244.978 470.03C265.788 484.771 301.44 498.557 338.026 506.008C358.842 510.248 379.25 512.389 398.682 512.372C420.434 512.353 440.464 509.601 458.216 504.192C491.1 494.174 515.676 475.297 531.26 448.087C546.613 421.281 555.941 391.678 558.984 360.1C562.007 328.733 558.68 297.019 549.098 265.838C535.149 220.45 508.255 178.505 471.321 144.538C451.631 126.43 429.063 110.528 404.244 97.2734C386.805 87.9602 368.137 79.8959 348.487 73.1756ZM114.92 409.455C107.976 407.081 100.794 403.703 93.4699 398.846C69.5725 383 52.064 370.384 39.9431 360.275C22.4596 345.694 19.8193 339.148 20.6829 336.224C23.1301 327.941 27.3524 326.663 35.0174 324.343C48.1888 320.356 70.2337 313.683 105.677 262.248C116.363 246.742 124.236 223.232 132.573 198.342C144.963 161.349 159.006 119.42 186.032 91.2534C217.163 58.8099 260.3 50.3223 317.909 65.3062C348.727 73.3215 377.593 84.4568 403.704 98.4011C428.454 111.618 450.957 127.474 470.587 145.528C507.385 179.37 534.177 221.148 548.066 266.345C557.598 297.361 560.908 328.901 557.902 360.087C554.879 391.457 545.615 420.863 530.365 447.488C514.954 474.396 490.618 493.073 458.033 503.001C440.377 508.38 420.444 511.117 398.788 511.136C379.419 511.153 359.074 509.019 338.319 504.791C301.85 497.364 266.329 483.635 245.617 468.964C221.996 452.232 211.708 442.283 204.9 435.7C196.608 427.682 192.823 424.022 176.348 418.331C176.32 418.321 176.291 418.311 176.263 418.302C170.228 416.238 162.786 415.9 154.174 415.509C142.695 414.987 129.32 414.38 114.92 409.455Z" fill="url(#paint0_linear_1201_7935)"/>
</mask>
<g mask="url(#mask0_1201_7935)">
<path d="M348.487 73.1756C338.643 69.8093 328.558 66.7815 318.249 64.1002C260.258 49.0169 216.783 57.6137 185.341 90.3817C158.097 118.775 143.999 160.868 131.56 198.006C123.258 222.795 115.416 246.21 104.846 261.548C69.6594 312.61 47.8604 319.208 34.8363 323.151C27.2945 325.434 22.3125 326.942 19.6544 335.938C17.0498 344.754 40.3096 365.088 92.8544 399.929C115.579 414.998 136.896 415.965 154.024 416.743C162.605 417.133 170.027 417.47 175.94 419.516L176.144 418.923L175.94 419.516C192.222 425.14 195.96 428.755 204.149 436.674C210.978 443.277 221.298 453.257 244.978 470.03C265.788 484.771 301.44 498.557 338.026 506.008C358.842 510.248 379.25 512.389 398.682 512.372C420.434 512.353 440.464 509.601 458.216 504.192C491.1 494.174 515.676 475.297 531.26 448.087C546.613 421.281 555.941 391.678 558.984 360.1C562.007 328.733 558.68 297.019 549.098 265.838C535.149 220.45 508.255 178.505 471.321 144.538C451.631 126.43 429.063 110.528 404.244 97.2734C386.805 87.9602 368.137 79.8959 348.487 73.1756ZM114.92 409.455C107.976 407.081 100.794 403.703 93.4699 398.846C69.5725 383 52.064 370.384 39.9431 360.275C22.4596 345.694 19.8193 339.148 20.6829 336.224C23.1301 327.941 27.3524 326.663 35.0174 324.343C48.1888 320.356 70.2337 313.683 105.677 262.248C116.363 246.742 124.236 223.232 132.573 198.342C144.963 161.349 159.006 119.42 186.032 91.2534C217.163 58.8099 260.3 50.3223 317.909 65.3062C348.727 73.3215 377.593 84.4568 403.704 98.4011C428.454 111.618 450.957 127.474 470.587 145.528C507.385 179.37 534.177 221.148 548.066 266.345C557.598 297.361 560.908 328.901 557.902 360.087C554.879 391.457 545.615 420.863 530.365 447.488C514.954 474.396 490.618 493.073 458.033 503.001C440.377 508.38 420.444 511.117 398.788 511.136C379.419 511.153 359.074 509.019 338.319 504.791C301.85 497.364 266.329 483.635 245.617 468.964C221.996 452.232 211.708 442.283 204.9 435.7C196.608 427.682 192.823 424.022 176.348 418.331C176.32 418.321 176.291 418.311 176.263 418.302C170.228 416.238 162.786 415.9 154.174 415.509C142.695 414.987 129.32 414.38 114.92 409.455Z" fill="#C0C0C0"/>
</g>
<mask id="mask1_1201_7935" style="mask-type:alpha" maskUnits="userSpaceOnUse" x="41" y="81" width="498" height="418">
<path d="M346.114 96.4942C338.155 93.7722 330.021 91.292 321.725 89.0593C269.539 74.8766 230.103 81.7276 201.164 110.003C176.024 134.567 162.405 171.707 150.39 204.476C142.021 227.302 134.116 248.862 123.491 262.929C90.1403 308.195 69.1305 314.808 56.5778 318.759C48.9913 321.147 43.979 322.724 41.2978 331.426C39.7133 336.318 45.1481 344.719 57.4533 356.385C68.5234 366.881 84.727 379.599 104.312 393.165C124.722 407.441 143.916 409.028 159.338 410.304C166.793 410.92 173.232 411.453 178.591 413.277L178.591 413.277C195.59 419.026 199.26 422.045 210.154 430.972C217.473 436.97 227.498 445.185 246.607 458.459C266.179 472.062 299.458 484.875 333.456 491.898C352.902 495.914 371.92 497.982 389.984 498.045C410.251 498.115 428.872 495.632 445.33 490.665C475.022 481.703 497.306 464.85 511.565 440.573C525.858 416.122 534.654 389.073 537.71 360.175C540.747 331.459 537.965 302.401 529.44 273.808C517.121 232.493 493.06 194.229 459.856 163.154C442.152 146.585 421.821 131.995 399.426 119.79C382.822 110.74 364.965 102.941 346.114 96.4942ZM126.826 403.345C119.767 400.931 112.418 397.413 104.907 392.16C63.4813 363.465 39.4759 340.306 42.2566 331.719C44.7404 323.658 49.264 322.234 56.7583 319.875C69.4394 315.884 90.6636 309.203 124.244 263.626C134.984 249.406 142.923 227.753 151.329 204.829C163.294 172.196 176.857 135.208 201.786 110.85C230.433 82.86 269.559 76.1016 321.397 90.1902C349.277 97.6937 375.357 108.008 398.912 120.845C421.242 133.016 441.512 147.561 459.161 164.079C492.238 195.035 516.203 233.14 528.468 274.275C536.946 302.712 539.714 331.604 536.696 360.15C533.66 388.853 524.925 415.718 510.731 439.999C496.636 463.997 474.575 480.667 445.161 489.545C423.421 496.106 386.443 501.642 333.734 490.755C299.842 483.755 266.684 470.993 247.201 457.453C228.121 444.199 218.112 435.997 210.804 430.008C200.116 421.25 196.106 417.974 178.97 412.162C173.512 410.304 167.024 409.768 159.512 409.146C149.883 408.35 138.771 407.43 126.826 403.345Z" fill="url(#paint1_linear_1201_7935)"/>
</mask>
<g mask="url(#mask1_1201_7935)">
<path d="M346.114 96.4942C338.155 93.7722 330.021 91.292 321.725 89.0593C269.539 74.8766 230.103 81.7276 201.164 110.003C176.024 134.567 162.405 171.707 150.39 204.476C142.021 227.302 134.116 248.862 123.491 262.929C90.1403 308.195 69.1305 314.808 56.5778 318.759C48.9913 321.147 43.979 322.724 41.2978 331.426C39.7133 336.318 45.1481 344.719 57.4533 356.385C68.5234 366.881 84.727 379.599 104.312 393.165C124.722 407.441 143.916 409.028 159.338 410.304C166.793 410.92 173.232 411.453 178.591 413.277L178.591 413.277C195.59 419.026 199.26 422.045 210.154 430.972C217.473 436.97 227.498 445.185 246.607 458.459C266.179 472.062 299.458 484.875 333.456 491.898C352.902 495.914 371.92 497.982 389.984 498.045C410.251 498.115 428.872 495.632 445.33 490.665C475.022 481.703 497.306 464.85 511.565 440.573C525.858 416.122 534.654 389.073 537.71 360.175C540.747 331.459 537.965 302.401 529.44 273.808C517.121 232.493 493.06 194.229 459.856 163.154C442.152 146.585 421.821 131.995 399.426 119.79C382.822 110.74 364.965 102.941 346.114 96.4942ZM126.826 403.345C119.767 400.931 112.418 397.413 104.907 392.16C63.4813 363.465 39.4759 340.306 42.2566 331.719C44.7404 323.658 49.264 322.234 56.7583 319.875C69.4394 315.884 90.6636 309.203 124.244 263.626C134.984 249.406 142.923 227.753 151.329 204.829C163.294 172.196 176.857 135.208 201.786 110.85C230.433 82.86 269.559 76.1016 321.397 90.1902C349.277 97.6937 375.357 108.008 398.912 120.845C421.242 133.016 441.512 147.561 459.161 164.079C492.238 195.035 516.203 233.14 528.468 274.275C536.946 302.712 539.714 331.604 536.696 360.15C533.66 388.853 524.925 415.718 510.731 439.999C496.636 463.997 474.575 480.667 445.161 489.545C423.421 496.106 386.443 501.642 333.734 490.755C299.842 483.755 266.684 470.993 247.201 457.453C228.121 444.199 218.112 435.997 210.804 430.008C200.116 421.25 196.106 417.974 178.97 412.162C173.512 410.304 167.024 409.768 159.512 409.146C149.883 408.35 138.771 407.43 126.826 403.345Z" fill="#C0C0C0"/>
</g>
<mask id="mask2_1201_7935" style="mask-type:alpha" maskUnits="userSpaceOnUse" x="62" y="106" width="456" height="378">
<path d="M344.02 119.862C337.876 117.76 331.607 115.814 325.198 114.018C278.777 100.736 243.37 105.878 216.954 129.738C193.936 150.529 180.828 182.749 169.264 211.176C160.815 231.943 152.835 251.559 142.136 264.309C110.684 303.792 90.4819 310.383 78.4119 314.321C70.73 316.828 65.6553 318.484 62.9387 326.913C58.9214 338.317 87.506 365.747 115.767 386.401C133.952 399.98 151.1 402.187 164.879 403.961C171.128 404.765 176.525 405.459 181.239 407.036L181.24 407.036C200.593 413.447 203.77 415.707 221.419 428.229C228.064 432.944 236.335 438.812 248.233 446.887C260.396 455.151 278.331 463.3 298.735 469.83C321.695 477.18 345.762 481.825 368.335 483.263C395.05 484.964 418.759 482.214 438.806 475.09C462.158 466.79 480.011 452.649 491.868 433.058C505.104 410.962 513.373 386.464 516.445 360.242C519.498 334.173 517.261 307.768 509.794 281.76C499.101 244.519 477.869 209.939 448.392 181.758C420.031 154.644 384.983 133.871 344.02 119.862ZM139.059 397.515C131.801 395.033 124.165 391.315 116.342 385.473C82.6842 360.875 60.6002 336.374 63.8279 327.211C66.3605 319.354 70.9638 317.851 78.5901 315.363C90.7698 311.389 111.155 304.738 142.807 265.004C153.621 252.116 161.638 232.411 170.125 211.548C181.639 183.246 194.689 151.168 217.503 130.562C243.647 106.946 278.772 101.88 324.883 115.074C373.89 128.807 415.219 151.531 447.735 182.617C477.093 210.684 498.237 245.115 508.881 282.186C516.306 308.046 518.532 334.296 515.497 360.205C512.446 386.245 504.237 410.571 491.095 432.508C479.382 451.861 461.721 465.84 438.604 474.056C418.673 481.14 395.081 483.873 368.482 482.178C345.975 480.745 321.974 476.113 299.076 468.783C278.745 462.272 260.883 454.162 248.782 445.94C236.89 437.87 228.623 432.005 221.981 427.292C204.248 414.711 201.054 412.448 181.589 405.991C176.801 404.391 171.369 403.691 165.079 402.882C157.335 401.885 148.518 400.75 139.059 397.515Z" fill="url(#paint2_linear_1201_7935)"/>
</mask>
<g mask="url(#mask2_1201_7935)">
<path d="M344.02 119.862C337.876 117.76 331.607 115.814 325.198 114.018C278.777 100.736 243.37 105.878 216.954 129.738C193.936 150.529 180.828 182.749 169.264 211.176C160.815 231.943 152.835 251.559 142.136 264.309C110.684 303.792 90.4819 310.383 78.4119 314.321C70.73 316.828 65.6553 318.484 62.9387 326.913C58.9214 338.317 87.506 365.747 115.767 386.401C133.952 399.98 151.1 402.187 164.879 403.961C171.128 404.765 176.525 405.459 181.239 407.036L181.24 407.036C200.593 413.447 203.77 415.707 221.419 428.229C228.064 432.944 236.335 438.812 248.233 446.887C260.396 455.151 278.331 463.3 298.735 469.83C321.695 477.18 345.762 481.825 368.335 483.263C395.05 484.964 418.759 482.214 438.806 475.09C462.158 466.79 480.011 452.649 491.868 433.058C505.104 410.962 513.373 386.464 516.445 360.242C519.498 334.173 517.261 307.768 509.794 281.76C499.101 244.519 477.869 209.939 448.392 181.758C420.031 154.644 384.983 133.871 344.02 119.862ZM139.059 397.515C131.801 395.033 124.165 391.315 116.342 385.473C82.6842 360.875 60.6002 336.374 63.8279 327.211C66.3605 319.354 70.9638 317.851 78.5901 315.363C90.7698 311.389 111.155 304.738 142.807 265.004C153.621 252.116 161.638 232.411 170.125 211.548C181.639 183.246 194.689 151.168 217.503 130.562C243.647 106.946 278.772 101.88 324.883 115.074C373.89 128.807 415.219 151.531 447.735 182.617C477.093 210.684 498.237 245.115 508.881 282.186C516.306 308.046 518.532 334.296 515.497 360.205C512.446 386.245 504.237 410.571 491.095 432.508C479.382 451.861 461.721 465.84 438.604 474.056C418.673 481.14 395.081 483.873 368.482 482.178C345.975 480.745 321.974 476.113 299.076 468.783C278.745 462.272 260.883 454.162 248.782 445.94C236.89 437.87 228.623 432.005 221.981 427.292C204.248 414.711 201.054 412.448 181.589 405.991C176.801 404.391 171.369 403.691 165.079 402.882C157.335 401.885 148.518 400.75 139.059 397.515Z" fill="#C0C0C0"/>
</g>
<mask id="mask3_1201_7935" style="mask-type:alpha" maskUnits="userSpaceOnUse" x="84" y="131" width="413" height="339">
<path d="M341.601 143.085C337.363 141.635 333.055 140.267 328.674 138.978C287.964 126.595 256.57 130.074 232.702 149.614C211.826 166.704 199.808 192.867 188.184 218.167C179.645 236.756 171.579 254.313 160.784 265.691C131.321 299.405 112.704 305.676 100.385 309.825C92.2566 312.562 87.3504 314.215 84.5811 322.402C80.6518 332.72 99.3787 357.87 127.222 379.636C143.344 392.711 158.597 395.544 170.854 397.82C175.543 398.691 179.971 399.514 183.889 400.797L183.89 400.797L185.877 401.438C208.726 408.808 210.59 409.411 249.861 435.315C260.891 442.605 277.684 450.173 295.925 456.084C316.908 462.879 338.838 467.293 359.343 468.846C383.706 470.693 405.328 468.537 423.607 462.439C444.93 455.325 461.269 442.912 472.171 425.545C484.357 405.802 492.102 383.853 495.194 360.303C498.27 336.875 496.579 313.117 490.169 289.688C481.096 256.523 462.688 225.63 436.934 200.348C411.32 175.203 379.296 155.976 341.601 143.085ZM151.881 392.175C144.279 389.575 136.144 385.572 127.78 378.789C100.695 357.616 81.6862 332.458 85.401 322.702C87.9987 315.022 92.7263 313.43 100.559 310.792C112.22 306.864 131.738 300.29 161.369 266.383C172.279 254.885 180.384 237.242 188.966 218.563C200.534 193.381 212.495 167.343 233.174 150.414C256.793 131.078 287.932 127.658 328.37 139.957C371.594 152.674 407.912 173.257 436.315 201.14C461.959 226.315 480.287 257.067 489.316 290.073C495.688 313.363 497.369 336.974 494.314 360.252C491.244 383.633 483.556 405.424 471.461 425.018C460.698 442.164 444.538 454.43 423.436 461.471C405.262 467.534 383.747 469.676 359.489 467.838C339.043 466.288 317.174 461.887 296.245 455.109C278.064 449.222 261.339 441.683 250.364 434.429C211.007 408.468 209.132 407.861 186.197 400.464L184.212 399.823C180.247 398.525 175.795 397.698 171.081 396.822C165.279 395.745 158.801 394.542 151.881 392.175Z" fill="url(#paint3_linear_1201_7935)"/>
</mask>
<g mask="url(#mask3_1201_7935)">
<path d="M341.601 143.085C337.363 141.635 333.055 140.267 328.674 138.978C287.964 126.595 256.57 130.074 232.702 149.614C211.826 166.704 199.808 192.867 188.184 218.167C179.645 236.756 171.579 254.313 160.784 265.691C131.321 299.405 112.704 305.676 100.385 309.825C92.2566 312.562 87.3504 314.215 84.5811 322.402C80.6518 332.72 99.3787 357.87 127.222 379.636C143.344 392.711 158.597 395.544 170.854 397.82C175.543 398.691 179.971 399.514 183.889 400.797L183.89 400.797L185.877 401.438C208.726 408.808 210.59 409.411 249.861 435.315C260.891 442.605 277.684 450.173 295.925 456.084C316.908 462.879 338.838 467.293 359.343 468.846C383.706 470.693 405.328 468.537 423.607 462.439C444.93 455.325 461.269 442.912 472.171 425.545C484.357 405.802 492.102 383.853 495.194 360.303C498.27 336.875 496.579 313.117 490.169 289.688C481.096 256.523 462.688 225.63 436.934 200.348C411.32 175.203 379.296 155.976 341.601 143.085ZM151.881 392.175C144.279 389.575 136.144 385.572 127.78 378.789C100.695 357.616 81.6862 332.458 85.401 322.702C87.9987 315.022 92.7263 313.43 100.559 310.792C112.22 306.864 131.738 300.29 161.369 266.383C172.279 254.885 180.384 237.242 188.966 218.563C200.534 193.381 212.495 167.343 233.174 150.414C256.793 131.078 287.932 127.658 328.37 139.957C371.594 152.674 407.912 173.257 436.315 201.14C461.959 226.315 480.287 257.067 489.316 290.073C495.688 313.363 497.369 336.974 494.314 360.252C491.244 383.633 483.556 405.424 471.461 425.018C460.698 442.164 444.538 454.43 423.436 461.471C405.262 467.534 383.747 469.676 359.489 467.838C339.043 466.288 317.174 461.887 296.245 455.109C278.064 449.222 261.339 441.683 250.364 434.429C211.007 408.468 209.132 407.861 186.197 400.464L184.212 399.823C180.247 398.525 175.795 397.698 171.081 396.822C165.279 395.745 158.801 394.542 151.881 392.175Z" fill="#C0C0C0"/>
</g>
<mask id="mask4_1201_7935" style="mask-type:alpha" maskUnits="userSpaceOnUse" x="105" y="156" width="371" height="300">
<path d="M339.175 166.235C336.856 165.442 334.516 164.677 332.148 163.938C253.561 138.195 228.901 184.596 207.143 225.534C198.504 241.788 190.345 257.141 179.433 267.074C152.093 295.041 134.324 301.178 122.566 305.239C114.149 308.147 109.069 309.901 106.222 317.89C104.187 322.861 106.316 331.52 112.072 341.623C118.184 352.351 127.632 363.448 138.675 372.869C153.096 385.893 166.221 389.222 177.802 392.159C180.874 392.939 183.776 393.675 186.538 394.557L186.54 394.558C190.706 395.863 194.367 396.908 197.597 397.83C212.515 402.089 221.519 404.66 251.489 423.744C270.591 435.944 309.677 450.751 350.349 454.43C372.364 456.421 391.897 454.859 408.406 449.787C427.7 443.859 442.526 433.175 452.473 418.032C463.616 400.641 470.845 381.236 473.962 360.352C477.066 339.559 475.926 318.441 470.575 297.583C463.112 268.496 447.52 241.293 425.483 218.916C402.639 195.72 373.629 178.018 339.175 166.235ZM165.607 387.705C157.402 384.899 148.582 380.564 139.218 372.108C115.492 351.866 103.184 327.448 106.973 318.189C109.661 310.648 114.581 308.948 122.733 306.133C134.569 302.045 152.455 295.867 179.929 267.761C190.953 257.729 199.154 242.296 207.838 225.957C218.858 205.223 230.252 183.784 248.773 170.441C269.843 155.262 297.019 153.43 331.854 164.841C369.298 176.53 400.603 194.968 424.9 219.64C446.837 241.916 462.357 268.986 469.781 297.924C475.099 318.652 476.232 339.633 473.15 360.286C470.056 381.014 462.882 400.273 451.827 417.527C439.061 436.961 411.116 458.981 350.495 453.497C309.937 449.828 270.979 435.073 251.945 422.917C221.888 403.779 212.848 401.197 197.87 396.921C194.645 396 190.989 394.956 186.832 393.654C184.05 392.766 181.138 392.027 178.055 391.245C174.085 390.238 169.931 389.184 165.607 387.705Z" fill="url(#paint4_linear_1201_7935)"/>
</mask>
<g mask="url(#mask4_1201_7935)">
<path d="M339.175 166.235C336.856 165.442 334.516 164.677 332.148 163.938C253.561 138.195 228.901 184.596 207.143 225.534C198.504 241.788 190.345 257.141 179.433 267.074C152.093 295.041 134.324 301.178 122.566 305.239C114.149 308.147 109.069 309.901 106.222 317.89C104.187 322.861 106.316 331.52 112.072 341.623C118.184 352.351 127.632 363.448 138.675 372.869C153.096 385.893 166.221 389.222 177.802 392.159C180.874 392.939 183.776 393.675 186.538 394.557L186.54 394.558C190.706 395.863 194.367 396.908 197.597 397.83C212.515 402.089 221.519 404.66 251.489 423.744C270.591 435.944 309.677 450.751 350.349 454.43C372.364 456.421 391.897 454.859 408.406 449.787C427.7 443.859 442.526 433.175 452.473 418.032C463.616 400.641 470.845 381.236 473.962 360.352C477.066 339.559 475.926 318.441 470.575 297.583C463.112 268.496 447.52 241.293 425.483 218.916C402.639 195.72 373.629 178.018 339.175 166.235ZM165.607 387.705C157.402 384.899 148.582 380.564 139.218 372.108C115.492 351.866 103.184 327.448 106.973 318.189C109.661 310.648 114.581 308.948 122.733 306.133C134.569 302.045 152.455 295.867 179.929 267.761C190.953 257.729 199.154 242.296 207.838 225.957C218.858 205.223 230.252 183.784 248.773 170.441C269.843 155.262 297.019 153.43 331.854 164.841C369.298 176.53 400.603 194.968 424.9 219.64C446.837 241.916 462.357 268.986 469.781 297.924C475.099 318.652 476.232 339.633 473.15 360.286C470.056 381.014 462.882 400.273 451.827 417.527C439.061 436.961 411.116 458.981 350.495 453.497C309.937 449.828 270.979 435.073 251.945 422.917C221.888 403.779 212.848 401.197 197.87 396.921C194.645 396 190.989 394.956 186.832 393.654C184.05 392.766 181.138 392.027 178.055 391.245C174.085 390.238 169.931 389.184 165.607 387.705Z" fill="#C0C0C0"/>
</g>
<mask id="mask5_1201_7935" style="mask-type:alpha" maskUnits="userSpaceOnUse" x="126" y="181" width="329" height="261">
<path d="M333.115 188.017C304.766 178.322 282.121 178.954 263.958 189.931C247.437 199.917 236.596 216.937 226.112 233.396C217.375 247.111 209.123 260.066 198.084 268.459C173.078 290.707 156.235 296.612 145.089 300.519C136.196 303.637 130.828 305.519 127.864 313.379C123.31 323.778 131.857 348.55 150.127 366.099C163.922 380.53 176.087 384.28 187.853 387.905L189.19 388.318C194.872 390.032 199.754 391.104 204.476 392.141C217.134 394.921 229.09 397.548 253.118 412.173C270.609 422.863 305.683 436.135 341.356 440.013C371.422 443.281 411.688 440.817 432.775 410.52C452.988 380.45 459.64 342.148 451.029 305.431C445.164 280.423 432.376 256.917 414.045 237.452C394.005 216.171 367.999 199.966 336.738 189.275C336.367 189.148 335.997 189.022 335.625 188.897C334.783 188.595 333.947 188.302 333.115 188.017ZM181.064 384.819C171.544 381.563 161.615 376.89 150.659 365.43C131.128 346.668 124.62 322.643 128.547 313.674C131.363 306.207 136.589 304.375 145.245 301.34C156.451 297.412 173.383 291.476 198.488 269.138C209.631 260.668 217.927 247.643 226.711 233.854C237.137 217.486 247.918 200.561 264.261 190.683C282.757 179.504 305.998 179.195 335.339 189.723C335.708 189.847 336.081 189.974 336.449 190.099C367.619 200.759 393.532 216.904 413.499 238.107C431.739 257.476 444.463 280.859 450.295 305.728C454.557 323.902 455.137 342.264 452.018 360.301C448.891 378.385 442.221 395.118 432.193 410.035C411.349 439.985 371.369 442.402 341.502 439.156C305.925 435.289 270.959 422.06 253.526 411.405C229.407 396.724 217.4 394.087 204.69 391.295C199.98 390.261 195.109 389.191 189.451 387.484L188.118 387.072C185.786 386.354 183.437 385.63 181.064 384.819Z" fill="url(#paint5_linear_1201_7935)"/>
</mask>
<g mask="url(#mask5_1201_7935)">
<path d="M333.115 188.017C304.766 178.322 282.121 178.954 263.958 189.931C247.437 199.917 236.596 216.937 226.112 233.396C217.375 247.111 209.123 260.066 198.084 268.459C173.078 290.707 156.235 296.612 145.089 300.519C136.196 303.637 130.828 305.519 127.864 313.379C123.31 323.778 131.857 348.55 150.127 366.099C163.922 380.53 176.087 384.28 187.853 387.905L189.19 388.318C194.872 390.032 199.754 391.104 204.476 392.141C217.134 394.921 229.09 397.548 253.118 412.173C270.609 422.863 305.683 436.135 341.356 440.013C371.422 443.281 411.688 440.817 432.775 410.52C452.988 380.45 459.64 342.148 451.029 305.431C445.164 280.423 432.376 256.917 414.045 237.452C394.005 216.171 367.999 199.966 336.738 189.275C336.367 189.148 335.997 189.022 335.625 188.897C334.783 188.595 333.947 188.302 333.115 188.017ZM181.064 384.819C171.544 381.563 161.615 376.89 150.659 365.43C131.128 346.668 124.62 322.643 128.547 313.674C131.363 306.207 136.589 304.375 145.245 301.34C156.451 297.412 173.383 291.476 198.488 269.138C209.631 260.668 217.927 247.643 226.711 233.854C237.137 217.486 247.918 200.561 264.261 190.683C282.757 179.504 305.998 179.195 335.339 189.723C335.708 189.847 336.081 189.974 336.449 190.099C367.619 200.759 393.532 216.904 413.499 238.107C431.739 257.476 444.463 280.859 450.295 305.728C454.557 323.902 455.137 342.264 452.018 360.301C448.891 378.385 442.221 395.118 432.193 410.035C411.349 439.985 371.369 442.402 341.502 439.156C305.925 435.289 270.959 422.06 253.526 411.405C229.407 396.724 217.4 394.087 204.69 391.295C199.98 390.261 195.109 389.191 189.451 387.484L188.118 387.072C185.786 386.354 183.437 385.63 181.064 384.819Z" fill="#C0C0C0"/>
</g>
<mask id="mask6_1201_7935" style="mask-type:alpha" maskUnits="userSpaceOnUse" x="147" y="205" width="287" height="223">
<path d="M331.619 211.062C310.885 203.97 293.728 203.787 279.348 210.468C265.031 217.118 254.845 229.73 244.994 241.928C236.578 252.348 227.875 263.124 216.737 269.848C194.424 286.422 178.655 291.932 168.22 295.579C158.513 298.971 152.653 301.019 149.507 308.867C144.957 318.619 147.388 343.143 161.577 359.324C171.2 371.821 180.254 378.629 191.838 382.077L191.84 382.078C198.009 383.854 203.595 384.669 209.509 385.532C222.007 387.355 234.932 389.24 254.747 400.601C270.728 409.815 301.834 421.568 332.363 425.596C358.819 429.087 394.297 428.002 413.075 403.009C431.308 377.57 438.044 344.842 431.564 313.209C427.276 292.284 417.272 272.481 402.633 255.94C386.44 237.643 365.065 223.485 339.102 213.858C336.559 212.83 334.062 211.897 331.619 211.062ZM190.03 380.662C179.536 377.073 171.079 370.414 162.104 358.758C148.104 342.792 145.66 318.721 150.122 309.156C153.131 301.651 158.542 299.761 168.362 296.329C178.838 292.668 194.67 287.136 217.044 270.514C228.272 263.738 237.021 252.904 245.483 242.427C255.274 230.303 265.4 217.766 279.554 211.191C295.459 203.803 314.843 204.922 338.823 214.604C364.701 224.201 385.995 238.303 402.121 256.523C416.68 272.974 426.628 292.661 430.888 313.457C437.319 344.848 430.64 377.318 412.562 402.542C394.011 427.232 358.789 428.282 332.509 424.815C302.059 420.797 271.041 409.079 255.107 399.892C235.195 388.476 222.216 386.582 209.663 384.752C203.77 383.892 198.203 383.08 192.071 381.314C191.382 381.109 190.701 380.892 190.03 380.662Z" fill="url(#paint6_linear_1201_7935)"/>
</mask>
<g mask="url(#mask6_1201_7935)">
<path d="M331.619 211.062C310.885 203.97 293.728 203.787 279.348 210.468C265.031 217.118 254.845 229.73 244.994 241.928C236.578 252.348 227.875 263.124 216.737 269.848C194.424 286.422 178.655 291.932 168.22 295.579C158.513 298.971 152.653 301.019 149.507 308.867C144.957 318.619 147.388 343.143 161.577 359.324C171.2 371.821 180.254 378.629 191.838 382.077L191.84 382.078C198.009 383.854 203.595 384.669 209.509 385.532C222.007 387.355 234.932 389.24 254.747 400.601C270.728 409.815 301.834 421.568 332.363 425.596C358.819 429.087 394.297 428.002 413.075 403.009C431.308 377.57 438.044 344.842 431.564 313.209C427.276 292.284 417.272 272.481 402.633 255.94C386.44 237.643 365.065 223.485 339.102 213.858C336.559 212.83 334.062 211.897 331.619 211.062ZM190.03 380.662C179.536 377.073 171.079 370.414 162.104 358.758C148.104 342.792 145.66 318.721 150.122 309.156C153.131 301.651 158.542 299.761 168.362 296.329C178.838 292.668 194.67 287.136 217.044 270.514C228.272 263.738 237.021 252.904 245.483 242.427C255.274 230.303 265.4 217.766 279.554 211.191C295.459 203.803 314.843 204.922 338.823 214.604C364.701 224.201 385.995 238.303 402.121 256.523C416.68 272.974 426.628 292.661 430.888 313.457C437.319 344.848 430.64 377.318 412.562 402.542C394.011 427.232 358.789 428.282 332.509 424.815C302.059 420.797 271.041 409.079 255.107 399.892C235.195 388.476 222.216 386.582 209.663 384.752C203.77 383.892 198.203 383.08 192.071 381.314C191.382 381.109 190.701 380.892 190.03 380.662Z" fill="#C0C0C0"/>
</g>
<mask id="mask7_1201_7935" style="mask-type:alpha" maskUnits="userSpaceOnUse" x="166" y="229" width="248" height="185">
<path d="M329.953 233.64C296.548 222.215 280.432 236.424 263.474 251.374C255.11 258.747 246.462 266.372 235.39 271.244C216.457 282.224 202.673 286.859 192.609 290.243C181 294.146 174.605 296.297 171.149 304.358C168.531 309.643 166.836 318.246 166.735 326.79C166.612 337.116 168.845 346.261 173.022 352.54C179.189 364.037 184.695 373.069 194.488 375.838L194.49 375.838C200.689 377.52 207.095 377.988 213.878 378.483C226.121 379.376 239.997 380.389 256.377 389.03C267.706 395.053 294.566 406.495 323.369 411.179C338.354 413.616 351.621 413.835 362.803 411.83C376.011 409.462 386.297 403.967 393.372 395.5C409.7 374.682 416.576 347.488 412.244 320.88C409.501 304.04 402.249 287.949 391.271 274.349C379.132 259.309 362.75 247.355 342.582 238.819C338.11 236.706 333.91 234.993 329.953 233.64ZM193.624 374.813C184.695 371.759 179.436 363.072 173.55 352.102C164.002 337.746 167.272 313.575 171.698 304.637C175.025 296.877 181.314 294.762 192.731 290.923C202.821 287.531 216.639 282.885 235.597 271.888C246.732 266.989 255.422 259.329 263.826 251.92C273.408 243.473 282.458 235.495 294.452 232.001C307.969 228.064 323.173 230.443 342.304 239.485C362.399 247.99 378.71 259.89 390.791 274.857C401.699 288.371 408.904 304.353 411.627 321.075C415.923 347.459 409.108 374.421 392.931 395.048C385.973 403.373 375.821 408.787 362.765 411.127C351.646 413.121 338.441 412.901 323.517 410.475C294.782 405.802 267.988 394.388 256.687 388.38C240.21 379.687 226.274 378.67 213.979 377.773C207.223 377.28 200.841 376.814 194.692 375.146C194.331 375.043 193.974 374.932 193.624 374.813Z" fill="url(#paint7_linear_1201_7935)"/>
</mask>
<g mask="url(#mask7_1201_7935)">
<path d="M329.953 233.64C296.548 222.215 280.432 236.424 263.474 251.374C255.11 258.747 246.462 266.372 235.39 271.244C216.457 282.224 202.673 286.859 192.609 290.243C181 294.146 174.605 296.297 171.149 304.358C168.531 309.643 166.836 318.246 166.735 326.79C166.612 337.116 168.845 346.261 173.022 352.54C179.189 364.037 184.695 373.069 194.488 375.838L194.49 375.838C200.689 377.52 207.095 377.988 213.878 378.483C226.121 379.376 239.997 380.389 256.377 389.03C267.706 395.053 294.566 406.495 323.369 411.179C338.354 413.616 351.621 413.835 362.803 411.83C376.011 409.462 386.297 403.967 393.372 395.5C409.7 374.682 416.576 347.488 412.244 320.88C409.501 304.04 402.249 287.949 391.271 274.349C379.132 259.309 362.75 247.355 342.582 238.819C338.11 236.706 333.91 234.993 329.953 233.64ZM193.624 374.813C184.695 371.759 179.436 363.072 173.55 352.102C164.002 337.746 167.272 313.575 171.698 304.637C175.025 296.877 181.314 294.762 192.731 290.923C202.821 287.531 216.639 282.885 235.597 271.888C246.732 266.989 255.422 259.329 263.826 251.92C273.408 243.473 282.458 235.495 294.452 232.001C307.969 228.064 323.173 230.443 342.304 239.485C362.399 247.99 378.71 259.89 390.791 274.857C401.699 288.371 408.904 304.353 411.627 321.075C415.923 347.459 409.108 374.421 392.931 395.048C385.973 403.373 375.821 408.787 362.765 411.127C351.646 413.121 338.441 412.901 323.517 410.475C294.782 405.802 267.988 394.388 256.687 388.38C240.21 379.687 226.274 378.67 213.979 377.773C207.223 377.28 200.841 376.814 194.692 375.146C194.331 375.043 193.974 374.932 193.624 374.813Z" fill="#C0C0C0"/>
</g>
<mask id="mask8_1201_7935" style="mask-type:alpha" maskUnits="userSpaceOnUse" x="183" y="252" width="211" height="148">
<path d="M328.021 255.191C307.845 248.289 295.302 254.512 280.265 261.971C272.414 265.864 264.297 269.89 254.041 272.647C240.069 278.214 229.104 281.474 220.293 284.092C205.176 288.586 196.848 291.061 192.791 299.848C187.748 309.473 179.848 333.6 184.457 345.713C184.667 346.608 184.871 347.51 185.076 348.412C187.217 357.831 189.434 367.57 197.138 369.598L197.141 369.599C203.159 371.109 210.428 371.134 218.124 371.161C230.576 371.204 244.689 371.252 258.009 377.459C272.405 384.236 345.64 416.595 373.666 387.994C388.235 371.794 395.36 350.069 393.224 328.378C391.949 315.436 387.51 303.405 380.029 292.62C371.877 280.866 360.45 271.164 346.064 263.784C339.375 259.827 333.423 257.038 328.021 255.191ZM196.627 368.77C189.761 366.422 187.657 357.162 185.62 348.197C185.413 347.287 185.207 346.377 184.995 345.473L184.983 345.432C180.434 333.528 188.272 309.663 193.274 300.116C197.208 291.596 205.44 289.149 220.384 284.707C229.205 282.085 240.184 278.822 254.148 273.255C264.428 270.495 272.57 266.456 280.445 262.55C299.368 253.165 314.316 245.752 345.781 264.362C360.106 271.711 371.472 281.359 379.576 293.043C386.998 303.745 391.403 315.677 392.666 328.509C394.783 349.996 387.725 371.515 373.305 387.55C362.138 398.945 342.359 401.837 314.525 396.135C290.026 391.116 267.019 380.989 258.265 376.867C244.851 370.618 230.682 370.568 218.181 370.524C210.515 370.498 203.274 370.473 197.312 368.976C197.079 368.915 196.851 368.846 196.627 368.77Z" fill="url(#paint8_linear_1201_7935)"/>
</mask>
<g mask="url(#mask8_1201_7935)">
<path d="M328.021 255.191C307.845 248.289 295.302 254.512 280.265 261.971C272.414 265.864 264.297 269.89 254.041 272.647C240.069 278.214 229.104 281.474 220.293 284.092C205.176 288.586 196.848 291.061 192.791 299.848C187.748 309.473 179.848 333.6 184.457 345.713C184.667 346.608 184.871 347.51 185.076 348.412C187.217 357.831 189.434 367.57 197.138 369.598L197.141 369.599C203.159 371.109 210.428 371.134 218.124 371.161C230.576 371.204 244.689 371.252 258.009 377.459C272.405 384.236 345.64 416.595 373.666 387.994C388.235 371.794 395.36 350.069 393.224 328.378C391.949 315.436 387.51 303.405 380.029 292.62C371.877 280.866 360.45 271.164 346.064 263.784C339.375 259.827 333.423 257.038 328.021 255.191ZM196.627 368.77C189.761 366.422 187.657 357.162 185.62 348.197C185.413 347.287 185.207 346.377 184.995 345.473L184.983 345.432C180.434 333.528 188.272 309.663 193.274 300.116C197.208 291.596 205.44 289.149 220.384 284.707C229.205 282.085 240.184 278.822 254.148 273.255C264.428 270.495 272.57 266.456 280.445 262.55C299.368 253.165 314.316 245.752 345.781 264.362C360.106 271.711 371.472 281.359 379.576 293.043C386.998 303.745 391.403 315.677 392.666 328.509C394.783 349.996 387.725 371.515 373.305 387.55C362.138 398.945 342.359 401.837 314.525 396.135C290.026 391.116 267.019 380.989 258.265 376.867C244.851 370.618 230.682 370.568 218.181 370.524C210.515 370.498 203.274 370.473 197.312 368.976C197.079 368.915 196.851 368.846 196.627 368.77Z" fill="#C0C0C0"/>
</g>
<mask id="mask9_1201_7935" style="mask-type:alpha" maskUnits="userSpaceOnUse" x="194" y="270" width="181" height="117">
<path d="M325.048 273.718C313.118 269.638 301.998 270.885 286.626 272.61C282.257 273.1 277.739 273.607 272.687 274.059C268.923 274.792 265.4 275.465 262.084 276.098C233.226 281.608 220.056 284.124 214.433 295.34C209.904 303.534 196.111 328.491 195.922 338.854C194.099 349.41 192.907 361.724 199.788 363.358L199.791 363.359C205.549 364.655 213.872 364.136 222.684 363.587C235.112 362.812 249.195 361.936 259.643 365.889C261.627 366.651 263.987 367.605 266.72 368.709C277.916 373.235 294.836 380.073 311.317 383.813C331.037 388.289 345.381 387.171 353.951 380.491C366.886 369.13 374.726 352.36 374.937 335.621C375.171 317.06 366.156 300.417 349.554 288.755C340.251 280.883 332.492 276.263 325.048 273.718ZM199.435 362.664C193.478 360.627 194.674 348.938 196.411 338.885L196.416 338.834C196.581 328.65 210.331 303.768 214.85 295.592C220.347 284.628 233.437 282.128 262.119 276.651C265.435 276.018 268.958 275.345 272.7 274.615C277.734 274.167 282.254 273.66 286.626 273.169C311.473 270.382 325.16 268.846 349.25 289.229C365.732 300.807 374.674 317.296 374.443 335.668C374.234 352.225 366.475 368.816 353.686 380.049C345.253 386.622 331.042 387.707 311.46 383.262C295.01 379.528 278.109 372.698 266.926 368.178C264.191 367.073 261.829 366.118 259.84 365.355C249.305 361.368 235.176 362.249 222.706 363.026C213.926 363.573 205.633 364.09 199.934 362.808C199.762 362.767 199.596 362.719 199.435 362.664Z" fill="url(#paint9_linear_1201_7935)"/>
</mask>
<g mask="url(#mask9_1201_7935)">
<path d="M325.048 273.718C313.118 269.638 301.998 270.885 286.626 272.61C282.257 273.1 277.739 273.607 272.687 274.059C268.923 274.792 265.4 275.465 262.084 276.098C233.226 281.608 220.056 284.124 214.433 295.34C209.904 303.534 196.111 328.491 195.922 338.854C194.099 349.41 192.907 361.724 199.788 363.358L199.791 363.359C205.549 364.655 213.872 364.136 222.684 363.587C235.112 362.812 249.195 361.936 259.643 365.889C261.627 366.651 263.987 367.605 266.72 368.709C277.916 373.235 294.836 380.073 311.317 383.813C331.037 388.289 345.381 387.171 353.951 380.491C366.886 369.13 374.726 352.36 374.937 335.621C375.171 317.06 366.156 300.417 349.554 288.755C340.251 280.883 332.492 276.263 325.048 273.718ZM199.435 362.664C193.478 360.627 194.674 348.938 196.411 338.885L196.416 338.834C196.581 328.65 210.331 303.768 214.85 295.592C220.347 284.628 233.437 282.128 262.119 276.651C265.435 276.018 268.958 275.345 272.7 274.615C277.734 274.167 282.254 273.66 286.626 273.169C311.473 270.382 325.16 268.846 349.25 289.229C365.732 300.807 374.674 317.296 374.443 335.668C374.234 352.225 366.475 368.816 353.686 380.049C345.253 386.622 331.042 387.707 311.46 383.262C295.01 379.528 278.109 372.698 266.926 368.178C264.191 367.073 261.829 366.118 259.84 365.355C249.305 361.368 235.176 362.249 222.706 363.026C213.926 363.573 205.633 364.09 199.934 362.808C199.762 362.767 199.596 362.719 199.435 362.664Z" fill="#C0C0C0"/>
</g>
<mask id="mask10_1201_7935" style="mask-type:alpha" maskUnits="userSpaceOnUse" x="199" y="275" width="161" height="100">
<path d="M315.048 280.34C308.11 277.968 300.242 276.36 291.324 275.479C259.126 274.361 242.606 278.953 236.075 290.833C232.933 296.235 225.736 306.192 219.386 314.976C214.357 321.931 209.608 328.501 207.443 332.005C205.288 334.878 203.094 339.175 201.59 343.478C199.942 348.192 199.377 352.11 199.999 354.511C200.383 355.993 201.205 356.87 202.44 357.119L202.442 357.119C207.982 358.18 217.874 356.939 228.347 355.625C240.792 354.065 253.659 352.451 261.282 354.319C265.423 355.353 271.649 357.941 278.857 360.937C296.75 368.373 321.257 378.56 334.218 372.989C346.256 366.781 355.672 355.261 358.804 342.918C361.437 332.547 359.451 322.462 353.062 313.754C346.431 301.936 339.212 293.674 330.355 287.773C325.837 284.763 320.757 282.293 315.048 280.34ZM202.204 356.545C201.316 356.241 200.714 355.499 200.412 354.332C199.142 349.435 203.397 338.112 207.772 332.278C209.94 328.77 214.684 322.208 219.706 315.262C226.064 306.467 233.27 296.499 236.429 291.067C242.86 279.368 259.256 274.854 291.257 275.964C307.441 277.564 320.154 281.565 330.112 288.199C338.916 294.064 346.096 302.284 352.707 314.065C359.023 322.676 360.985 332.615 358.393 342.826C355.299 355.02 345.986 366.407 334.088 372.542C321.293 378.041 296.872 367.89 279.038 360.477C271.817 357.476 265.581 354.883 261.412 353.843C253.723 351.958 240.82 353.577 228.342 355.142C217.899 356.451 208.036 357.689 202.553 356.639C202.432 356.615 202.316 356.583 202.204 356.545Z" fill="url(#paint10_linear_1201_7935)"/>
</mask>
<g mask="url(#mask10_1201_7935)">
<path d="M315.048 280.34C308.11 277.968 300.242 276.36 291.324 275.479C259.126 274.361 242.606 278.953 236.075 290.833C232.933 296.235 225.736 306.192 219.386 314.976C214.357 321.931 209.608 328.501 207.443 332.005C205.288 334.878 203.094 339.175 201.59 343.478C199.942 348.192 199.377 352.11 199.999 354.511C200.383 355.993 201.205 356.87 202.44 357.119L202.442 357.119C207.982 358.18 217.874 356.939 228.347 355.625C240.792 354.065 253.659 352.451 261.282 354.319C265.423 355.353 271.649 357.941 278.857 360.937C296.75 368.373 321.257 378.56 334.218 372.989C346.256 366.781 355.672 355.261 358.804 342.918C361.437 332.547 359.451 322.462 353.062 313.754C346.431 301.936 339.212 293.674 330.355 287.773C325.837 284.763 320.757 282.293 315.048 280.34ZM202.204 356.545C201.316 356.241 200.714 355.499 200.412 354.332C199.142 349.435 203.397 338.112 207.772 332.278C209.94 328.77 214.684 322.208 219.706 315.262C226.064 306.467 233.27 296.499 236.429 291.067C242.86 279.368 259.256 274.854 291.257 275.964C307.441 277.564 320.154 281.565 330.112 288.199C338.916 294.064 346.096 302.284 352.707 314.065C359.023 322.676 360.985 332.615 358.393 342.826C355.299 355.02 345.986 366.407 334.088 372.542C321.293 378.041 296.872 367.89 279.038 360.477C271.817 357.476 265.581 354.883 261.412 353.843C253.723 351.958 240.82 353.577 228.342 355.142C217.899 356.451 208.036 357.689 202.553 356.639C202.432 356.615 202.316 356.583 202.204 356.545Z" fill="#C0C0C0"/>
</g>
<mask id="mask11_1201_7935" style="mask-type:alpha" maskUnits="userSpaceOnUse" x="203" y="272" width="155" height="94">
<path d="M312.576 277.742C311.707 277.444 310.831 277.165 309.949 276.904C295.59 272.649 283.574 271.788 274.235 274.344C266.903 276.352 261.345 280.384 257.717 286.328C251.776 296.061 228.61 319.328 218.986 325.227C215.4 327.425 211.473 331.751 208.213 337.097C205.263 341.933 203.492 346.624 203.702 349.049C203.795 350.127 204.278 350.76 205.092 350.879C210.795 351.71 224.678 349.072 238.103 346.521C248.513 344.543 258.346 342.675 262.932 342.745C268.133 342.824 277.307 347.912 287.018 353.299C297.022 358.848 307.367 364.587 314.458 365.464C321.876 366.382 331.419 364.243 339.364 359.882C348.65 354.785 354.753 347.323 356.549 338.871C358.651 328.98 355.15 316.058 347.183 304.305C338.756 291.871 326.542 282.518 312.576 277.742ZM204.926 350.411C204.415 350.236 204.132 349.762 204.063 348.969C203.656 344.271 211.244 330.421 219.133 325.585C228.792 319.665 252.044 296.31 258.008 286.539C261.577 280.693 267.054 276.725 274.286 274.744C283.566 272.204 295.523 273.065 309.826 277.303C324.813 281.743 337.978 291.43 346.888 304.575C354.676 316.066 358.243 329.185 356.197 338.812C354.43 347.127 348.405 354.479 339.233 359.514C331.35 363.842 321.885 365.964 314.532 365.055C307.5 364.184 297.181 358.461 287.202 352.925C277.457 347.519 268.252 342.413 262.972 342.333C258.354 342.262 248.505 344.134 238.078 346.115C224.679 348.661 210.824 351.294 205.173 350.47C205.085 350.457 205.003 350.438 204.926 350.411Z" fill="url(#paint11_linear_1201_7935)"/>
</mask>
<g mask="url(#mask11_1201_7935)">
<path d="M312.576 277.742C311.707 277.444 310.831 277.165 309.949 276.904C295.59 272.649 283.574 271.788 274.235 274.344C266.903 276.352 261.345 280.384 257.717 286.328C251.776 296.061 228.61 319.328 218.986 325.227C215.4 327.425 211.473 331.751 208.213 337.097C205.263 341.933 203.492 346.624 203.702 349.049C203.795 350.127 204.278 350.76 205.092 350.879C210.795 351.71 224.678 349.072 238.103 346.521C248.513 344.543 258.346 342.675 262.932 342.745C268.133 342.824 277.307 347.912 287.018 353.299C297.022 358.848 307.367 364.587 314.458 365.464C321.876 366.382 331.419 364.243 339.364 359.882C348.65 354.785 354.753 347.323 356.549 338.871C358.651 328.98 355.15 316.058 347.183 304.305C338.756 291.871 326.542 282.518 312.576 277.742ZM204.926 350.411C204.415 350.236 204.132 349.762 204.063 348.969C203.656 344.271 211.244 330.421 219.133 325.585C228.792 319.665 252.044 296.31 258.008 286.539C261.577 280.693 267.054 276.725 274.286 274.744C283.566 272.204 295.523 273.065 309.826 277.303C324.813 281.743 337.978 291.43 346.888 304.575C354.676 316.066 358.243 329.185 356.197 338.812C354.43 347.127 348.405 354.479 339.233 359.514C331.35 363.842 321.885 365.964 314.532 365.055C307.5 364.184 297.181 358.461 287.202 352.925C277.457 347.519 268.252 342.413 262.972 342.333C258.354 342.262 248.505 344.134 238.078 346.115C224.679 348.661 210.824 351.294 205.173 350.47C205.085 350.457 205.003 350.438 204.926 350.411Z" fill="#C0C0C0"/>
</g>
<defs>
<linearGradient id="paint0_linear_1201_7935" x1="67.256" y1="196.666" x2="563.337" y2="366.316" gradientUnits="userSpaceOnUse">
<stop stop-color="white"/>
<stop offset="0.0436152" stop-color="#B4B4B4"/>
<stop offset="0.150732"/>
<stop offset="0.171421" stop-color="#171717"/>
<stop offset="0.385884" stop-color="white"/>
<stop offset="0.632551" stop-color="#E6E6E6"/>
<stop offset="0.856667" stop-color="#1A1A1A"/>
<stop offset="0.998739"/>
</linearGradient>
<linearGradient id="paint1_linear_1201_7935" x1="83.5297" y1="207.894" x2="541.688" y2="364.576" gradientUnits="userSpaceOnUse">
<stop stop-color="white"/>
<stop offset="0.0436152" stop-color="#B4B4B4"/>
<stop offset="0.150732"/>
<stop offset="0.171421" stop-color="#171717"/>
<stop offset="0.385884" stop-color="white"/>
<stop offset="0.632551" stop-color="#E6E6E6"/>
<stop offset="0.856667" stop-color="#1A1A1A"/>
<stop offset="0.998739"/>
</linearGradient>
<linearGradient id="paint2_linear_1201_7935" x1="99.8035" y1="219.102" x2="520.066" y2="362.825" gradientUnits="userSpaceOnUse">
<stop stop-color="white"/>
<stop offset="0.0436152" stop-color="#B4B4B4"/>
<stop offset="0.150732"/>
<stop offset="0.171421" stop-color="#171717"/>
<stop offset="0.385884" stop-color="white"/>
<stop offset="0.632551" stop-color="#E6E6E6"/>
<stop offset="0.856667" stop-color="#1A1A1A"/>
<stop offset="0.998739"/>
</linearGradient>
<linearGradient id="paint3_linear_1201_7935" x1="116.078" y1="230.288" x2="498.485" y2="361.065" gradientUnits="userSpaceOnUse">
<stop stop-color="white"/>
<stop offset="0.0436152" stop-color="#B4B4B4"/>
<stop offset="0.150732"/>
<stop offset="0.171421" stop-color="#171717"/>
<stop offset="0.385884" stop-color="white"/>
<stop offset="0.632551" stop-color="#E6E6E6"/>
<stop offset="0.856667" stop-color="#1A1A1A"/>
<stop offset="0.998739"/>
</linearGradient>
<linearGradient id="paint4_linear_1201_7935" x1="132.344" y1="241.459" x2="476.951" y2="359.309" gradientUnits="userSpaceOnUse">
<stop stop-color="white"/>
<stop offset="0.0436152" stop-color="#B4B4B4"/>
<stop offset="0.150732"/>
<stop offset="0.171421" stop-color="#171717"/>
<stop offset="0.385884" stop-color="white"/>
<stop offset="0.632551" stop-color="#E6E6E6"/>
<stop offset="0.856667" stop-color="#1A1A1A"/>
<stop offset="0.998739"/>
</linearGradient>
<linearGradient id="paint5_linear_1201_7935" x1="148.627" y1="252.545" x2="455.476" y2="357.482" gradientUnits="userSpaceOnUse">
<stop stop-color="white"/>
<stop offset="0.0436152" stop-color="#B4B4B4"/>
<stop offset="0.150732"/>
<stop offset="0.171421" stop-color="#171717"/>
<stop offset="0.385884" stop-color="white"/>
<stop offset="0.632551" stop-color="#E6E6E6"/>
<stop offset="0.856667" stop-color="#1A1A1A"/>
<stop offset="0.998739"/>
</linearGradient>
<linearGradient id="paint6_linear_1201_7935" x1="164.932" y1="263.491" x2="434.213" y2="355.58" gradientUnits="userSpaceOnUse">
<stop stop-color="white"/>
<stop offset="0.0436152" stop-color="#B4B4B4"/>
<stop offset="0.150732"/>
<stop offset="0.171421" stop-color="#171717"/>
<stop offset="0.385884" stop-color="white"/>
<stop offset="0.632551" stop-color="#E6E6E6"/>
<stop offset="0.856667" stop-color="#1A1A1A"/>
<stop offset="0.998739"/>
</linearGradient>
<linearGradient id="paint7_linear_1201_7935" x1="180.345" y1="276.755" x2="412.354" y2="356.098" gradientUnits="userSpaceOnUse">
<stop stop-color="white"/>
<stop offset="0.0436152" stop-color="#B4B4B4"/>
<stop offset="0.150732"/>
<stop offset="0.171421" stop-color="#171717"/>
<stop offset="0.385884" stop-color="white"/>
<stop offset="0.632551" stop-color="#E6E6E6"/>
<stop offset="0.856667" stop-color="#1A1A1A"/>
<stop offset="0.998739"/>
</linearGradient>
<linearGradient id="paint8_linear_1201_7935" x1="195.501" y1="289.469" x2="391.05" y2="356.343" gradientUnits="userSpaceOnUse">
<stop stop-color="white"/>
<stop offset="0.0436152" stop-color="#B4B4B4"/>
<stop offset="0.150732"/>
<stop offset="0.171421" stop-color="#171717"/>
<stop offset="0.385884" stop-color="white"/>
<stop offset="0.632551" stop-color="#E6E6E6"/>
<stop offset="0.856667" stop-color="#1A1A1A"/>
<stop offset="0.998739"/>
</linearGradient>
<linearGradient id="paint9_linear_1201_7935" x1="208.119" y1="299.983" x2="371.09" y2="355.716" gradientUnits="userSpaceOnUse">
<stop stop-color="white"/>
<stop offset="0.0436152" stop-color="#B4B4B4"/>
<stop offset="0.150732"/>
<stop offset="0.171421" stop-color="#171717"/>
<stop offset="0.385884" stop-color="white"/>
<stop offset="0.632551" stop-color="#E6E6E6"/>
<stop offset="0.856667" stop-color="#1A1A1A"/>
<stop offset="0.998739"/>
</linearGradient>
<linearGradient id="paint10_linear_1201_7935" x1="215.146" y1="303.835" x2="355.851" y2="351.953" gradientUnits="userSpaceOnUse">
<stop stop-color="white"/>
<stop offset="0.0436152" stop-color="#B4B4B4"/>
<stop offset="0.150732"/>
<stop offset="0.171421" stop-color="#171717"/>
<stop offset="0.385884" stop-color="white"/>
<stop offset="0.632551" stop-color="#E6E6E6"/>
<stop offset="0.856667" stop-color="#1A1A1A"/>
<stop offset="0.998739"/>
</linearGradient>
<linearGradient id="paint11_linear_1201_7935" x1="219.499" y1="300.873" x2="354.007" y2="346.873" gradientUnits="userSpaceOnUse">
<stop stop-color="white"/>
<stop offset="0.0436152" stop-color="#B4B4B4"/>
<stop offset="0.150732"/>
<stop offset="0.171421" stop-color="#171717"/>
<stop offset="0.385884" stop-color="white"/>
<stop offset="0.632551" stop-color="#E6E6E6"/>
<stop offset="0.856667" stop-color="#1A1A1A"/>
<stop offset="0.998739"/>
</linearGradient>
</defs>
</svg>
