<svg width="199" height="8" viewBox="0 0 199 8" fill="none" xmlns="http://www.w3.org/2000/svg">
<path d="M197.809 2.71668H193.58V4.27911H197.449C198.013 4.27911 198.399 4.37602 198.605 4.57272C198.812 4.76969 198.914 5.14661 198.914 5.70158V6.42454C198.914 6.9815 198.814 7.35601 198.613 7.55274C198.411 7.74967 198.022 7.8495 197.449 7.8495H193.781C193.207 7.8495 192.816 7.74967 192.61 7.55274C192.403 7.35601 192.301 6.9815 192.301 6.42454V6.25877L193.342 6.04291V6.93874H197.892V5.24375H194.011C193.439 5.24375 193.053 5.14661 192.849 4.95014C192.645 4.75317 192.544 4.37602 192.544 3.8217V3.25228C192.544 2.69997 192.645 2.32305 192.849 2.12161C193.053 1.92021 193.439 1.82065 194.011 1.82065H197.366C197.925 1.82065 198.312 1.91755 198.525 2.11207C198.739 2.30652 198.845 2.65051 198.845 3.14086V3.28545L197.809 3.50893V2.71668V2.71668ZM182.632 3.02972C182.66 3.20483 182.679 3.38282 182.694 3.56304C182.707 3.74551 182.714 3.92596 182.714 4.10578V7.8495H181.666V1.82065H182.534L186.958 5.75861C187.089 5.8698 187.212 5.993 187.331 6.12576C187.449 6.26101 187.565 6.41472 187.681 6.5856C187.648 6.40536 187.624 6.22089 187.608 6.03602C187.591 5.8511 187.584 5.65859 187.584 5.45966V1.82065H188.632V7.8495H187.854L183.34 3.85446C183.181 3.70787 183.046 3.56797 182.933 3.43521C182.819 3.30238 182.719 3.16719 182.632 3.02972ZM170.641 3.25228C170.641 2.69997 170.745 2.32305 170.954 2.12161C171.163 1.92021 171.551 1.82065 172.12 1.82065H176.475C177.044 1.82065 177.433 1.92021 177.642 2.12161C177.85 2.32305 177.954 2.69997 177.954 3.25228V6.42454C177.954 6.97708 177.852 7.35134 177.646 7.55052C177.44 7.74967 177.049 7.8495 176.475 7.8495H172.12C171.541 7.8495 171.15 7.74967 170.946 7.55274C170.742 7.35601 170.641 6.9815 170.641 6.42454V3.25228V3.25228ZM171.779 6.93874H176.816V2.71668H171.779V6.93874ZM166.959 7.8495H165.826V1.83466H166.959V7.8495ZM160.222 2.71668V7.8495H159.089V2.71668H156.241V1.82065H163.083V2.71668H160.222V2.71668ZM147.911 1.82065V6.93874H152.316V1.82065H153.468V6.42454C153.468 6.9815 153.366 7.35601 153.16 7.55274C152.954 7.74967 152.562 7.8495 151.989 7.8495H148.252C147.679 7.8495 147.288 7.74967 147.081 7.55052C146.875 7.35134 146.773 6.97708 146.773 6.42454V1.82065H147.911ZM138.096 7.8495V1.82065H139.234V6.93874H143.924V7.8495H138.096V7.8495ZM127.07 3.25228C127.07 2.69997 127.175 2.32305 127.384 2.12161C127.592 1.92021 127.98 1.82065 128.549 1.82065H132.905C133.473 1.82065 133.863 1.92021 134.071 2.12161C134.28 2.32305 134.384 2.69997 134.384 3.25228V6.42454C134.384 6.97708 134.282 7.35134 134.076 7.55052C133.869 7.74967 133.479 7.8495 132.905 7.8495H128.549C127.971 7.8495 127.58 7.74967 127.375 7.55274C127.172 7.35601 127.07 6.9815 127.07 6.42454V3.25228ZM128.208 6.93874H133.246V2.71668H128.208V6.93874ZM121.82 1.50761H116.622V3.55615H121.251C121.903 3.55615 122.348 3.67671 122.59 3.91638C122.829 4.15835 122.95 4.61351 122.95 5.28655V6.11153C122.95 6.78968 122.832 7.24705 122.597 7.489C122.36 7.72873 121.912 7.8495 121.251 7.8495H116.964C116.295 7.8495 115.843 7.72873 115.601 7.48458C115.361 7.24262 115.24 6.78502 115.24 6.11153V5.91036L116.378 5.64701V6.82756H121.845V4.61775H117.234C116.568 4.61775 116.115 4.49698 115.878 4.25324C115.644 4.0111 115.525 3.55346 115.525 2.88289V2.24215C115.525 1.57134 115.644 1.11417 115.878 0.872249C116.115 0.628061 116.568 0.507324 117.234 0.507324H121.146C121.798 0.507324 122.249 0.625819 122.495 0.865092C122.744 1.10217 122.867 1.52166 122.867 2.11941V2.27113L121.82 2.56989V1.50761V1.50761ZM100.079 2.93946C100.079 3.02726 100.084 3.1478 100.093 3.29996C100.103 3.55104 100.107 3.7101 100.107 3.77895V7.8495H99.1689V1.82065H100.107L103.109 5.7321L105.866 1.82065H106.921V7.8495H105.866V3.77895C105.866 3.6319 105.871 3.48731 105.883 3.34966C105.895 3.20994 105.914 3.07447 105.935 2.94681C105.871 3.13621 105.805 3.30461 105.734 3.44898C105.665 3.59603 105.601 3.70563 105.539 3.77895L103.22 6.89863H102.922L100.518 3.80701C100.435 3.70052 100.355 3.57463 100.281 3.43274C100.207 3.28838 100.141 3.12417 100.079 2.93946ZM89.8401 7.8495V1.82065H95.9117V2.71668H90.9785V4.26484H93.9514V5.1609H90.9785V6.9675H95.9665V7.8495H89.8401V7.8495ZM84.2076 2.71668V7.8495H83.0747V2.71668H80.2273V1.82065H87.0693V2.71668H84.2076V2.71668ZM76.5029 2.71668H72.2738V4.27911H76.1427C76.707 4.27911 77.0934 4.37602 77.2996 4.57272C77.5061 4.76969 77.608 5.14661 77.608 5.70158V6.42454C77.608 6.9815 77.5084 7.35601 77.307 7.55274C77.1049 7.74967 76.7166 7.8495 76.1427 7.8495H72.4752C71.9013 7.8495 71.5103 7.74967 71.304 7.55274C71.0977 7.35601 70.9956 6.9815 70.9956 6.42454V6.25877L72.0365 6.04291V6.93874H76.5865V5.24375H72.7053C72.1336 5.24375 71.7473 5.14661 71.5437 4.95014C71.3399 4.75317 71.2376 4.37602 71.2376 3.8217V3.25228C71.2376 2.69997 71.3399 2.32305 71.5437 2.12161C71.7473 1.92021 72.1336 1.82065 72.7053 1.82065H76.0596C76.619 1.82065 77.0058 1.91755 77.219 2.11207C77.4329 2.30652 77.5391 2.65051 77.5391 3.14086V3.28545L76.5029 3.50893V2.71668V2.71668ZM64.1445 7.8495V5.2177L60.9987 1.82065H62.3809L64.7848 4.43306L67.0775 1.82065H68.4097L65.2782 5.2177V7.8495H64.1445ZM56.6987 1.50761H51.5018V3.55615H56.1297C56.7818 3.55615 57.2272 3.67671 57.4691 3.91638C57.7086 4.15835 57.8292 4.61351 57.8292 5.28655V6.11153C57.8292 6.78968 57.7111 7.24705 57.4762 7.489C57.239 7.72873 56.7912 7.8495 56.1297 7.8495H51.8433C51.1747 7.8495 50.722 7.72873 50.4801 7.48458C50.241 7.24262 50.1198 6.78502 50.1198 6.11153V5.91036L51.2576 5.64701V6.82756H56.7248V4.61775H52.1135C51.4476 4.61775 50.9947 4.49698 50.7574 4.25324C50.5229 4.0111 50.4043 3.55346 50.4043 2.88289V2.24215C50.4043 1.57134 50.5229 1.11417 50.7574 0.872249C50.9947 0.628061 51.4476 0.507324 52.1135 0.507324H56.0257C56.6775 0.507324 57.128 0.625819 57.3744 0.865092C57.6231 1.10217 57.7465 1.52166 57.7465 2.11941V2.27113L56.6987 2.56989V1.50761V1.50761ZM38.1738 1.82065C38.7479 1.82065 39.2309 1.85829 39.6221 1.93448C40.0135 2.01292 40.3359 2.12899 40.5897 2.28514C41.002 2.54626 41.3246 2.89918 41.557 3.34449C41.7867 3.79274 41.903 4.28354 41.903 4.82203C41.903 5.83416 41.5944 6.59299 40.9782 7.09533C40.3642 7.59795 39.4276 7.8495 38.1738 7.8495H34.7009V1.82065H38.1738ZM38.0479 2.71668H35.8387V6.93874H38.0479C39.0295 6.93874 39.7288 6.77299 40.1438 6.44347C40.5589 6.11153 40.7652 5.56639 40.7652 4.80798C40.7652 4.0659 40.5565 3.53229 40.1365 3.20748C39.717 2.8802 39.0201 2.71668 38.0479 2.71668ZM30.4076 7.8495H29.2741V1.83466H30.4076V7.8495ZM19.8892 1.82065V6.93874H24.2939V1.82065H25.4459V6.42454C25.4459 6.9815 25.3441 7.35601 25.1376 7.55274C24.9317 7.74967 24.5405 7.8495 23.9664 7.8495H20.2303C19.6568 7.8495 19.2654 7.74967 19.0593 7.55052C18.8528 7.35134 18.7507 6.97708 18.7507 6.42454V1.82065H19.8892ZM10.0743 7.8495V1.82065H11.2123V6.93874H15.9017V7.8495H10.0743V7.8495ZM0.454102 7.8495V0.507324H7.44317V1.50761H1.68434V3.91127H4.97024V4.89065H1.68434V7.8495H0.454102V7.8495Z" fill="#005E9E"/>
</svg>
