<svg width="205" height="44" viewBox="0 0 205 44" fill="none" xmlns="http://www.w3.org/2000/svg">
<path fill-rule="evenodd" clip-rule="evenodd" d="M171.303 37.9034V4.40696H179.705V37.9034H171.303ZM191.148 37.9034L181.364 22.8134V14.5221L187.886 4.40696H197.891L188.66 18.6677L201.152 37.9034H191.148ZM165.932 36.7427C165.158 37.5162 164.181 37.9034 163.002 37.9034H144.595C143.49 37.9034 142.514 37.4794 141.666 36.6315C140.819 35.784 140.395 34.8076 140.395 33.7021V14.4662H148.796V29.5012H158.856V14.4662H167.202V33.7021C167.202 34.9183 166.779 35.9316 165.932 36.7427ZM140.395 12.7532V8.60759C140.395 7.42859 140.809 6.43342 141.638 5.62314C142.467 4.81221 143.453 4.40696 144.595 4.40696H163.002C163.996 4.40696 164.946 4.82134 165.848 5.65033C166.751 6.47996 167.202 7.46513 167.202 8.60759V12.7532H140.395ZM113.023 37.9034V4.40696H121.425V37.9034H113.023ZM134.249 37.9034H123.083V29.5012H139.831L134.249 37.9034ZM80.124 25.3556V16.9541H108.59V25.3556H80.124ZM67.1793 37.9034L60.6569 27.8433H56.4006V37.9034H47.9992V14.4662H56.4006V19.4967H66.4607V12.7532H47.9992V4.40696H70.6064C71.6014 4.40696 72.541 4.96858 73.4253 6.09255C74.3098 7.21629 74.7703 8.05508 74.807 8.60759V23.6426C74.807 24.4527 74.383 25.3556 73.5358 26.351C72.6883 27.3458 71.7116 27.8433 70.6064 27.8433L77.1842 37.9034H67.1793V37.9034ZM35.2757 37.9034V4.40696H43.677V37.9034H35.2757ZM26.642 37.9034H9.61685C8.91662 37.9034 8.35518 37.8297 7.93103 37.682C7.50748 37.5345 7.07416 37.2215 6.63218 36.7427C5.82143 35.9316 5.41595 34.9183 5.41595 33.7021V14.4662H13.8177V29.5012H32.2244L26.642 37.9034ZM5.41595 12.7532V8.60759C5.41595 7.50214 5.83124 6.52586 6.65978 5.67817C7.48855 4.83024 8.47504 4.40696 9.61685 4.40696H26.642L32.2244 12.7532H5.41595ZM4.89822 0H200.102C202.796 0 205 2.20423 205 4.89841V38.4127C205 41.1064 202.796 43.3109 200.102 43.3109H4.89822C2.20405 43.3109 0 41.1064 0 38.4127V4.89841C0 2.20423 2.20405 0 4.89822 0Z" fill="#005E9E"/>
</svg>
